PathFileType	4	(X/Y/Z)	Kaydara	
DataRate	CameraRate	NumFrames	NumMarkers	Units	OrigDataRate	OrigDataStartFrame	OrigNumFrames	
240.00	240.00	4	72	mm	240.00	90	359	
Frame#	Time	Hips			RightUpLeg			RightLeg			RightFoot			RightFoot_End			LeftUpLeg			LeftLeg			LeftFoot			LeftFoot_End			Spine			Spine1			Spine2			Spine3			Neck			Head			Head_End			RightShoulder			RightArm			RightForeArm			RightHand			RightHandThumb1			RightHandThumb2			RightHandThumb3			RightHandThumb3_End			RightInHandIndex			RightHandIndex1			RightHandIndex2			RightHandIndex3			RightHandIndex3_End			RightInHandMiddle			RightHandMiddle1			RightHandMiddle2			RightHandMiddle3			RightHandMiddle3_End			RightInHandRing			RightHandRing1			RightHandRing2			RightHandRing3			RightHandRing3_End			RightInHandPinky			RightHandPinky1			RightHandPinky2			RightHandPinky3			RightHandPinky3_End			LeftShoulder			LeftArm			LeftForeArm			LeftHand			LeftHandThumb1			LeftHandThumb2			LeftHandThumb3			LeftHandThumb3_End			LeftInHandIndex			LeftHandIndex1			LeftHandIndex2			LeftHandIndex3			LeftHandIndex3_End			LeftInHandMiddle			LeftHandMiddle1			LeftHandMiddle2			LeftHandMiddle3			LeftHandMiddle3_End			LeftInHandRing			LeftHandRing1			LeftHandRing2			LeftHandRing3			LeftHandRing3_End			LeftInHandPinky			LeftHandPinky1			LeftHandPinky2			LeftHandPinky3			LeftHandPinky3_End			
		X1	Y1	Z1	X2	Y2	Z2	X3	Y3	Z3	X4	Y4	Z4	X5	Y5	Z5	X6	Y6	Z6	X7	Y7	Z7	X8	Y8	Z8	X9	Y9	Z9	X10	Y10	Z10	X11	Y11	Z11	X12	Y12	Z12	X13	Y13	Z13	X14	Y14	Z14	X15	Y15	Z15	X16	Y16	Z16	X17	Y17	Z17	X18	Y18	Z18	X19	Y19	Z19	X20	Y20	Z20	X21	Y21	Z21	X22	Y22	Z22	X23	Y23	Z23	X24	Y24	Z24	X25	Y25	Z25	X26	Y26	Z26	X27	Y27	Z27	X28	Y28	Z28	X29	Y29	Z29	X30	Y30	Z30	X31	Y31	Z31	X32	Y32	Z32	X33	Y33	Z33	X34	Y34	Z34	X35	Y35	Z35	X36	Y36	Z36	X37	Y37	Z37	X38	Y38	Z38	X39	Y39	Z39	X40	Y40	Z40	X41	Y41	Z41	X42	Y42	Z42	X43	Y43	Z43	X44	Y44	Z44	X45	Y45	Z45	X46	Y46	Z46	X47	Y47	Z47	X48	Y48	Z48	X49	Y49	Z49	X50	Y50	Z50	X51	Y51	Z51	X52	Y52	Z52	X53	Y53	Z53	X54	Y54	Z54	X55	Y55	Z55	X56	Y56	Z56	X57	Y57	Z57	X58	Y58	Z58	X59	Y59	Z59	X60	Y60	Z60	X61	Y61	Z61	X62	Y62	Z62	X63	Y63	Z63	X64	Y64	Z64	X65	Y65	Z65	X66	Y66	Z66	X67	Y67	Z67	X68	Y68	Z68	X69	Y69	Z69	X70	Y70	Z70	X71	Y71	Z71	X72	Y72	Z72	

90	0.371	4198.941	914.58397	126.699	4255.052041938787	898.0283329392619	53.34305308448985	4160.016538698618	501.2831443353623	-41.94293290856106	4141.529580239761	109.75992106776225	-117.4150363116119	3989.8336055392965	33.013661421964386	-30.02714413462723	4157.415718658086	905.0600400650985	211.29559850337378	4066.417922471908	503.21285465184	286.4832196450813	3994.2960497409463	78.9410285966584	378.4482762525933	3872.5942029162275	-3.317065450581054	256.1306761712178	4131.016189524473	1031.6124976444255	79.8285733402205	4068.367426204613	1087.499405604774	30.885504513418674	4000.356173781663	1138.613044176859	-23.89843778866959	3931.915251710755	1176.0181055236317	-81.77897046846543	3857.6647558915997	1216.4958796119506	-141.9244272490757	3788.369518061179	1253.7143025772748	-194.06564274135434	3648.81728910179	1330.9290274801147	-200.33363543921652	3903.4192262931624	1205.2727068450758	-146.12116745295276	3966.4521733302604	1197.2152852573442	-262.6374088327343	4050.630368998148	934.6935210858641	-303.09214055412355	4066.473591128591	802.6776944360818	-518.029539191387	4073.581528721611	814.8638097831264	-546.5293874286926	4057.3369957913364	819.6221030449587	-575.3052531788101	4045.9762417763636	819.6988578196731	-595.2997516611335	4036.4641554127747	816.9937293467741	-611.929786606617	4076.567930969002	804.1997735480307	-549.4590882996907	4080.960147093859	795.2933136995975	-595.2631109781507	4070.627846096858	790.0491495240766	-624.594210995745	4056.553421562959	790.6403037780146	-637.9153942277585	4039.74330013255	793.7275251770267	-645.6267193409094	4075.6479501935096	795.7511810205797	-547.6214791842804	4079.4381846819006	782.4939703612637	-591.3041021196256	4068.0112308496896	775.6868502191284	-622.9159539242416	4050.9578223246317	775.8795543385567	-638.7982796028048	4032.5289468181936	779.0045014304042	-647.1438878286268	4075.022412654603	789.9769145644636	-545.1890142284523	4078.275600987263	772.9878875229231	-582.3271909072097	4068.152612035954	765.9673664925225	-609.4080405940464	4051.6165559200113	765.5757779057565	-624.4770507713642	4034.2476745355825	768.2403672672367	-632.2051917825081	4073.0988210919236	783.8367334813423	-540.7855002986778	4075.356215338049	764.3567796267314	-572.264728974112	4066.9802841064984	757.1128478381232	-593.0512407506342	4054.7882880072702	756.0425307525953	-603.6078417784292	4039.327166402228	757.9513244277987	-610.2034884956469	3861.1105586400067	1200.9690145372185	-96.56664371090662	3808.630290734557	1132.945948930249	5.09412483956998	3950.2879162195604	977.7159163794533	-178.325356480023	4051.419871320274	862.4056601795432	-400.65654520061344	4080.77756337986	872.1818404292677	-419.5312097081545	4119.7450887426685	861.8095825352649	-429.1662372012081	4145.973857479828	851.5375190256905	-436.8720501063248	4167.062689016294	840.3659601537217	-444.14808678034507	4079.440410819524	863.2985882723598	-426.4830455300914	4122.25219857367	848.3781510126831	-462.5020934665587	4156.184466216929	831.8575792947852	-478.75532890777623	4176.970097924041	821.8592134427788	-480.4165062483844	4193.9652153251445	813.7673595526484	-476.0960947922535	4075.67685383171	855.2338904296694	-427.51941052252363	4115.397299605215	836.3204944494319	-463.2143879621982	4151.793866491844	817.2698757959787	-480.95880254610927	4176.568502035244	804.7161258089288	-482.9672002584119	4195.017202485378	795.6234342842137	-478.24194520072683	4071.885965404909	849.9563465592481	-427.4356101527996	4104.07722463616	828.5402106903006	-459.65451109352887	4135.094224646967	810.9189848035484	-475.0723186693147	4158.616197962685	798.2700067996983	-476.98391395644296	4175.784859415418	789.4647430721635	-472.5288111153397	4066.5872252126514	843.9954160278959	-425.4828618268968	4092.727659144217	820.8052265474607	-454.18776752920394	4116.3227984023	805.2018369114252	-466.3171646321828	4132.878963484799	795.2534222795332	-467.60670913810753	4147.741802265221	787.0377575043374	-463.5999074487739
91	0.375	4198.941	914.58397	126.699	4255.034325867924	897.9963266436542	53.33995308595869	4159.962781664212	501.25914931420783	-41.94363656519042	4141.48941449446	109.73321923481028	-117.40369103620665	3989.7961032800345	32.98703118353968	-30.011136551995197	4157.42915836149	905.0920409138715	211.30349717551687	4066.4306255593788	503.24420815384485	286.4858757259679	3994.2588767650964	78.9847190977789	378.4681437658515	3872.5573033501078	-3.2719792936084415	256.1493364083055	4131.036050549626	1031.6140395076097	79.80737134501157	4068.405764608255	1087.5035313695303	30.845230032981366	4000.415483534164	1138.6223982591023	-23.95899388471382	3931.99739524264	1176.0393888621202	-81.85911157353065	3857.769098909451	1216.528117475428	-142.02477156317138	3788.492457540819	1253.7551566322302	-194.1843230147222	3648.918619051857	1330.9189078917068	-200.49564560557627	3903.5008158333885	1205.2767907369143	-146.20090757867777	3966.4560696210747	1197.0950155499154	-262.58076476190996	4050.35763980046	934.7909534611716	-302.78229169428283	4066.302662624248	803.2440820066535	-517.1614632058063	4073.2994599582553	815.4739017037683	-545.3868573661147	4057.1125566666806	820.3448355601487	-573.919114338626	4045.813675837384	820.5080312568915	-593.764643457175	4036.3717676965407	817.8818062731397	-610.288179572606	4076.342072855622	804.8391481268382	-548.3647588819897	4080.7808849361413	796.0886061103968	-593.9029440570705	4070.5425621881577	790.9710842408463	-623.0530467435314	4056.5390246237116	791.6323150983461	-636.267682276907	4039.7959821847608	794.771699512497	-643.8948507823843	4075.4825241382755	796.4077427744221	-546.5928374911676	4079.3508773705507	783.3119012925447	-590.0516995097423	4068.0343716601756	776.6447577464033	-621.4755823090339	4051.0702768742526	776.9228630003125	-637.2339377250184	4032.716640567117	780.1053022384357	-645.4896871106431	4074.8980192275735	790.6415393133411	-544.2136062765771	4078.255450892022	773.803835518416	-581.1975812132176	4068.236685484057	766.90688971135	-608.1246938793928	4051.791004796088	766.5985114324711	-623.079487124474	4034.494869706034	769.3175532136902	-630.7256795993808	4073.0241008351013	784.5069290948215	-539.8788206050841	4075.4061560236996	765.1689141676092	-571.259040990559	4067.125644674403	758.0257284103878	-591.9388712196534	4055.0053551451647	757.0169721051258	-602.4201074152646	4039.612004842824	758.9745004649228	-608.9477337276024	3861.2234452794255	1201.0225158723053	-96.6747807393344	3808.806696095694	1133.2209599552264	4.957822993575002	3950.229194470637	978.00248325766	-178.0444531906086	4051.2334365108372	862.5120347605317	-400.00643700195565	4080.4493825120517	872.3174837931899	-418.7604742331052	4119.331326688495	861.9522014890576	-428.52718120430745	4145.5243181943815	851.6953879309627	-436.34758137158354	4166.603702430574	840.545432167074	-443.73872313282317	4079.1848281429693	863.4807219957231	-425.7634341415649	4121.978388976234	848.6862298054784	-461.847116937823	4155.89685565352	832.2183012727197	-478.25135255386965	4176.655304078695	822.2152129242397	-480.0409440414394	4193.615373305427	814.0941884199855	-475.850117252935	4075.48664346336	855.4382411942202	-426.86483467949256	4115.224671314805	836.6597153314339	-462.6580023273914	4151.6148619327	817.6690202877367	-480.5756927291373	4176.360869024771	805.1107622182283	-482.74309813789154	4194.773246255576	795.9867311328832	-478.1616161036894	4071.742569122876	850.1736280754869	-426.8244184333833	4103.990701692505	828.890899440188	-459.16630388280515	4135.010990226541	811.3242196590974	-474.74368664617884	4158.510046250988	798.6721236327692	-476.8131965731631	4175.646780845418	789.837975612144	-472.4954277422957	4066.49702548597	844.2204197118685	-424.92700105748446	4092.722961194707	821.1588967619315	-453.77577233114	4116.33428500536	805.6022145774891	-466.04575662110295	4132.880289337234	795.6529909039242	-467.45667915112386	4147.71861860378	787.4125825789878	-463.57509796215027
92	0.379	4198.941	914.58397	126.699	4255.016785068197	897.9650523746253	53.33691378651511	4159.914141132501	501.23463843760356	-41.94390802264705	4141.452755242808	109.70613949426205	-117.39212123239835	3989.762177740126	32.95996223529872	-29.994838168007426	4157.442417451466	905.1232365685938	211.31117717956676	4066.441046400508	503.27486073503655	286.4862808985317	3994.2220623334615	79.02668550215513	378.4828719553157	3872.520996895	-3.228924595987138	256.1628338271193	4131.055927769274	1031.6158747432503	79.78686984306228	4068.444728429376	1087.5084545498062	30.805426094753795	4000.475945467114	1138.6329622984674	-24.01937650191601	3932.0807393795267	1176.0616168763995	-81.93933144812115	3857.8747696038654	1216.56100259558	-142.12558054342117	3788.616926944552	1253.7964495634076	-194.30391195457182	3649.022564565533	1330.9103968111579	-200.66171471340823	3903.583086650356	1205.2795748872416	-146.2814687941022	3966.459802272291	1196.9735391670904	-262.5243986871036	4050.0832163338223	934.885961003574	-302.4641533972471	4066.11429606963	803.815504578282	-516.3046541806601	4073.0007209516098	816.0887487470466	-544.2625803995443	4056.8678649051712	821.0677376677894	-572.5572356987639	4045.62747758528	821.313779944852	-592.2573445135885	4036.2521732804994	818.7631191849443	-608.6767978823117	4076.096585151317	805.4821074804704	-547.2870500191327	4080.574746031165	796.8825140296286	-592.5652261226851	4070.4245989507076	791.8866150540313	-621.5383866031681	4056.489207285864	792.6146570926003	-634.6490593581431	4039.8115594051856	795.8034039819759	-642.1942538043132	4075.295277973452	797.06689777248	-545.5788883023758	4079.233496661866	784.1270427179048	-588.8186314676738	4068.020840852778	777.5942819425745	-620.0586968519235	4051.1426248828548	777.9537927545559	-635.6960694431287	4032.862322535854	781.1906326842372	-643.8642843990664	4074.7504435229143	791.3081958230505	-543.2513769510696	4078.203540848849	774.6165397310934	-580.0839875036659	4068.2829885896103	767.8381826378414	-606.8606950528582	4051.924232338105	767.6091017101662	-621.7040007850333	4034.698986917158	770.3796612653184	-629.2703581367425	4072.9248344692105	785.1785568913278	-538.9834293318803	4075.42284170019	765.9773119839889	-570.2660704122221	4067.232570031176	758.9307291751138	-590.8414276260735	4055.1812923344487	757.9806069137207	-601.249067574561	4039.8539664062973	759.9842285754963	-607.7104176745103	3861.3382582303293	1201.0788738258912	-96.78277828302612	3808.9815326800936	1133.4971200858552	4.8192384140697	3950.17148773571	978.2867849953639	-177.75964720888297	4051.0812147532943	862.6804735056297	-399.37027579984755	4080.1560928856793	872.5198539305549	-418.0074365639459	4118.956926743698	862.1719040916564	-427.8968799940304	4145.117340650895	851.9366250111315	-435.8239483526936	4166.190018668292	840.8127176215337	-443.3221466926102	4078.9641621544297	863.7258516761019	-425.05656470562116	4121.7423872516565	849.05888964796	-461.19346591043507	4155.650910328004	832.6491509708829	-477.73668474434555	4176.38529197531	822.6478605643694	-479.64724769662683	4193.313377227831	814.5051345485801	-475.57986429602124	4075.331571093872	855.7032198768958	-426.21860489774514	4115.0901201625475	837.0598280662996	-462.0964509512804	4151.4781657495005	818.1347971000561	-480.1737561982151	4176.199315006593	805.5797478306885	-482.49092696082704	4194.578726930018	796.4324769722854	-478.04637041868926	4071.634375805263	850.4497731701148	-426.21878646050436	4103.94202067995	829.299007913269	-458.6692103535053	4134.96930388108	811.7915588454981	-474.39372214393694	4158.449089322342	799.1436190545835	-476.6119453780211	4175.557058897843	790.288122374531	-472.424936434117	4066.4421585163655	844.5026083268621	-424.373598613686	4092.7560382853053	821.5672225170085	-453.3511639599394	4116.386531367808	806.0605083695232	-465.750990597565	4132.925043109762	796.1155441792001	-467.27620310244254	4147.741668477812	787.8569310085218	-463.5138021013443
93	0.383	4198.941	914.58397	126.699	4254.9995290088855	897.934679948225	53.33397526175356	4159.8710200416745	501.20974299157655	-41.94382899457028	4141.419943946166	109.67883816659368	-117.3805186609976	3989.732161359061	32.93264671932327	-29.978424866135914	4157.455407150473	905.1534607552915	211.31858069897146	4066.448978149447	503.3046788170795	286.4844124313717	3994.1856363004676	79.06665350102575	378.4919343517382	3872.485330808676	-3.188187236877662	256.1706325351701	4131.075724049177	1031.617979500209	79.7671457223113	4068.48419877174	1087.5141684392352	30.76621435345247	4000.5373909778186	1138.6447192350322	-24.079412412987917	3932.1650048445526	1176.084677101224	-82.01938220983997	3857.981376028505	1216.5943229667632	-142.22652883927483	3788.742442737936	1253.8378941347182	-194.4240126349732	3649.1288244267657	1330.9035735767852	-200.8313125817515	3903.665645939614	1205.2807752108774	-146.3626369036736	3966.4631232487045	1196.8508820938007	-262.4683198438776	4049.8068444285122	934.9782213631431	-302.1374890438453	4065.909017815571	804.3922721778641	-515.4629604719782	4072.6865743439685	816.7093966581747	-543.1611306929767	4056.6044756962583	821.7920558915323	-571.2253058189835	4045.41932402677	822.1173930763291	-590.784347517413	4036.1070806623648	819.6389097503602	-607.1028286016021	4075.8325339523108	806.1294500142543	-546.2306865860502	4080.343189697713	797.6760773237877	-591.2561971640462	4070.2755316459975	792.7967715129852	-620.057613037349	4056.4055665535548	793.5883153962191	-633.0675261345789	4039.791612823138	796.8235625735672	-640.5333786396703	4075.0870338354425	797.7291633255451	-544.5843842799765	4079.0871163129464	784.9399954657017	-587.6111434653684	4067.971805046923	778.535974283634	-618.672788545161	4051.1760430376617	778.9728238147901	-634.1929110354772	4032.967144083775	782.260896642658	-642.2764076289759	4074.580326429813	791.9771978728876	-542.307059473006	4078.12058326085	775.4262156889833	-578.9924627797793	4068.292279877481	768.7613786991939	-605.6231792055289	4052.0169882921973	768.6075926738309	-620.358443869185	4034.860743338183	771.426653748018	-627.8475409051281	4072.8014335830067	785.8516794325968	-538.1039966252465	4075.406612144334	766.7817948299119	-569.2916581096919	4067.3013822500857	759.8275455909927	-589.7656061078627	4055.3163888180675	758.9330360665138	-600.1019359659289	4040.053296267215	760.980020499657	-606.4991596399815	3861.4546840202183	1201.1380191040362	-96.89025069429522	3809.1541581918323	1133.7735949004377	4.678557492878289	3950.1137512102623	978.5676331348119	-177.47073993712152	4050.964148578318	862.9160552555309	-398.7511487340507	4079.89868721095	872.7932696874532	-417.2756710920413	4118.622746474123	862.4725710696996	-427.27835455341835	4144.753608630999	852.2647886419899	-435.3036504200842	4165.822108485051	841.1710914162351	-442.9003054430121	4078.779115871367	864.0381115499854	-424.3656346501598	4121.544272550599	849.4989870700304	-460.5437123980574	4155.446321731334	833.152379268998	-477.21310623440985	4176.15965091175	823.1592995177385	-479.23667010727047	4193.0588254487475	815.0024332487345	-475.28612766686126	4075.21214697566	856.0329717663074	-425.5835529471436	4114.993443623777	837.5237376048038	-461.5317579139297	4151.383129048145	818.6694562550838	-479.7541069429203	4176.083056587525	806.1252055617962	-482.21114148216253	4194.4328655771815	796.9628969418226	-477.89614743541324	4071.56177432041	850.7889642982996	-425.6213062288888	4103.930823033748	829.7676297469087	-458.16489810851914	4134.968395253694	812.3235332403975	-474.02325307849776	4158.432415018778	799.6869056277731	-476.38032773263	4175.514779885787	790.8176940733928	-472.3170081938517	4066.4229001403332	844.8462697551297	-423.8249677675822	4092.826407080601	822.0335467241598	-452.91524453280664	4116.478692205159	806.5796279380459	-465.4334278331135	4133.0122605120605	796.6439138626932	-467.06532734001905	4147.809977280481	788.3737263327735	-463.41560746268794
